<svg xmlns="http://www.w3.org/2000/svg" width="108" height="33" fill="none" viewBox="0 0 108 33"><path fill="#EE3D50" d="M26.4307 26.8345C25.5868 27.3226 24.7493 27.8202 23.9023 28.302C21.6891 29.5602 19.4759 30.8217 17.25 32.0641C15.6068 32.9832 13.9445 32.9832 12.33 32.0166C8.97683 30.0135 5.63317 27.9945 2.30225 25.9534C0.582656 24.898 -0.0892602 23.291 0.0158261 21.326C0.130466 21.1136 0.331085 20.9995 0.531705 20.8854C3.08562 19.4116 5.63317 17.9252 8.17435 16.4323C8.33994 16.3341 8.50235 16.2327 8.70934 16.2453C10.0022 16.8792 11.19 17.6906 12.4479 18.3879C13.3204 18.8728 14.1547 19.418 15.0368 19.8807C16.7214 20.9773 18.4887 21.9313 20.2147 22.9614C22.1699 24.1278 24.1475 25.2561 26.0995 26.4288C26.2524 26.5207 26.4721 26.5778 26.4307 26.8345Z"/><path fill="#0BA04B" d="M3.68756 5.73261C6.77009 3.98941 9.82715 2.20818 12.9383 0.522024C14.3395 -0.238646 15.8553 -0.143562 17.2373 0.648802C20.6733 2.62021 24.0934 4.61696 27.4944 6.64542C28.9051 7.48532 29.628 8.79431 29.7108 10.4361C29.7299 10.7974 29.7235 11.1619 29.7299 11.5232C29.6471 11.7609 29.4337 11.8623 29.2363 11.9764C26.7652 13.39 24.3068 14.8195 21.8452 16.2457C21.6319 16.3693 21.4249 16.5183 21.1637 16.5246C20.7179 16.4898 20.3963 16.1918 20.0396 15.9763C18.3009 14.9367 16.5686 13.8813 14.8235 12.848C11.7919 10.9147 8.71578 9.05421 5.66828 7.14619C5.16514 6.83242 4.65244 6.53132 4.16204 6.20169C3.97734 6.07809 3.73851 5.99568 3.68756 5.73261Z"/><path fill="#FCB415" d="M3.68759 5.73276C7.34332 7.99892 10.9959 10.2651 14.6516 12.5312C14.7312 12.582 14.8013 12.6485 14.8745 12.7056C14.8522 12.9369 14.658 13.0067 14.4956 13.1017C12.7632 14.1287 11.0182 15.1365 9.27627 16.1476C9.09794 16.2522 8.91961 16.379 8.69033 16.3283C5.90077 17.9478 3.11439 19.5643 0.324822 21.1839C0.226105 21.2409 0.121018 21.2789 0.0159319 21.3265C0.0541452 17.6246 -0.08597 13.9163 0.0955428 10.2175C0.178338 8.51871 1.04769 7.22557 2.52845 6.36031C2.9074 6.13845 3.30227 5.94194 3.68759 5.73276Z"/><path fill="#FCB415" d="M21.1288 16.4452C23.8451 14.889 26.5646 13.3328 29.2809 11.7766C29.4306 11.691 29.5803 11.6086 29.7299 11.523C29.714 13.6054 29.6981 15.6877 29.679 17.7669C29.6631 19.2375 29.6312 20.7081 29.6248 22.1819C29.6121 24.4513 28.4721 25.9472 26.4309 26.8347C24.9023 25.9219 23.377 25.0059 21.8421 24.1026C19.7276 22.857 17.6068 21.6241 15.4923 20.3848C15.3108 20.2803 15.1484 20.144 14.9764 20.0235C14.9892 19.789 15.1898 19.7224 15.349 19.6273C17.075 18.6258 18.8073 17.6369 20.5365 16.6417C20.7212 16.5371 20.909 16.4452 21.1288 16.4452Z"/><path fill="#0BA04B" d="M101.029 13.9447C102.01 12.9811 103.048 12.3663 104.357 12.3663C106.468 12.3694 107.949 13.7989 107.991 15.9858C108.029 17.897 107.94 19.8082 107.924 21.7193C107.92 22.0046 107.815 22.0743 107.551 22.0585C107.131 22.0331 106.704 22.0141 106.284 22.0395C105.902 22.0648 105.847 21.8968 105.857 21.5672C105.898 19.9254 105.93 18.2805 105.937 16.6387C105.943 15.2378 105.258 14.4201 103.981 14.2299C102.666 14.0366 101.408 14.7972 101.042 16.0016C100.953 16.2996 100.953 16.607 100.947 16.9113C100.918 18.439 100.883 19.9698 100.877 21.4975C100.873 21.8461 100.781 21.9729 100.421 21.9412C99.9085 21.8968 99.2334 22.0838 98.9181 21.8239C98.5837 21.5482 98.8289 20.8573 98.8353 20.3501C98.864 17.9033 98.9245 15.4597 98.9436 13.0128C98.9468 12.5469 99.0136 12.2934 99.5614 12.3916C100.026 12.474 100.654 12.2078 100.934 12.5311C101.163 12.7941 101.01 13.3868 101.029 13.9447Z"/><path fill="#0BA04B" d="M37.5414 9.44709C37.5318 9.9542 37.5382 10.4645 37.5095 10.9716C37.4936 11.2695 37.5828 11.3773 37.8885 11.3678C38.3884 11.3519 38.8884 11.39 39.3852 11.3836C39.6335 11.3805 39.745 11.4629 39.7068 11.7132C39.7036 11.7323 39.7036 11.7513 39.7068 11.7703C39.745 13.2283 39.745 13.2282 38.2515 13.2029C37.4841 13.1902 37.4841 13.1902 37.4713 13.9319C37.4458 15.2694 37.4172 16.6069 37.4013 17.9444C37.3885 18.9523 37.9394 19.4562 38.9362 19.2249C39.5157 19.0886 39.6304 19.2724 39.7227 19.77C39.9074 20.7589 39.9329 20.7462 38.9521 20.9269C38.5317 21.0029 38.1114 21.0156 37.691 20.9934C36.1466 20.9078 35.3123 20.0204 35.3346 18.4769C35.3568 16.8731 35.376 15.2662 35.4237 13.6625C35.4365 13.279 35.3632 13.1015 34.9365 13.1363C34.7614 13.1522 34.4684 13.2726 34.4015 12.9937C34.3474 12.7687 34.3315 12.5088 34.5416 12.2996C35.5001 11.3393 36.4491 10.3726 37.4044 9.40588C37.449 9.41856 37.4968 9.43441 37.5414 9.44709Z"/><path fill="#0BA04B" d="M54.078 13.4848C54.8741 12.4547 55.8262 11.7891 57.1032 11.5989C57.5363 11.5355 57.8261 11.5736 57.721 12.1156C57.7114 12.1694 57.7178 12.2297 57.7178 12.2867C57.7082 12.7273 57.8324 13.2312 57.6509 13.5862C57.4503 13.9887 56.8675 13.7605 56.4631 13.8619C55.0492 14.2106 54.1321 15.2818 54.0493 16.8412C53.9825 18.1185 53.9729 19.399 53.9665 20.6794C53.9633 21.0503 53.8646 21.1961 53.4793 21.1485C52.9698 21.0883 52.3074 21.3355 51.9858 21.0217C51.6865 20.7301 51.9158 20.0804 51.9221 19.5891C51.9572 17.1075 52.0113 14.6226 52.0368 12.1409C52.04 11.7511 52.0877 11.5324 52.559 11.5989C53.0494 11.6687 53.6927 11.4214 54.0016 11.7194C54.3168 12.0205 54.0557 12.6575 54.0812 13.1488C54.0875 13.2597 54.078 13.3707 54.078 13.4848Z"/><path fill="#0BA04B" d="M61.3386 13.6112C62.1538 12.5462 63.1314 11.8838 64.4371 11.7127C64.8415 11.6588 65.0771 11.7285 64.9816 12.2008C64.9752 12.2388 64.9784 12.2768 64.9784 12.3149C64.9657 12.7934 65.1026 13.3449 64.902 13.7253C64.6982 14.1119 64.0772 13.8901 63.6473 14.0073C62.2525 14.3909 61.3832 15.4399 61.3036 16.9835C61.2399 18.2417 61.2271 19.5032 61.224 20.7646C61.224 21.1481 61.1475 21.332 60.7208 21.2749C60.2145 21.2052 59.5298 21.4683 59.2401 21.1355C58.9949 20.8502 59.17 20.191 59.1795 19.6997C59.2178 17.218 59.2719 14.7332 59.2942 12.2515C59.2974 11.8268 59.3961 11.6683 59.8355 11.7285C60.3228 11.7951 60.9596 11.5478 61.2749 11.8585C61.5711 12.1469 61.3195 12.7649 61.3418 13.2372C61.3481 13.3576 61.3418 13.4844 61.3386 13.6112Z"/><path fill="#0BA04B" d="M83.3144 20.5176C82.1807 21.6365 80.7891 21.8773 79.3179 21.6365C77.2226 21.2973 75.8341 19.5636 75.7195 17.2753C75.6749 16.3688 75.7736 15.4782 76.1239 14.6351C77.3213 11.7478 80.9197 11.0315 83.4131 13.1835C83.4386 13.1613 83.4863 13.1423 83.4895 13.1201C83.5628 12.1281 83.5628 12.1281 84.6072 12.1471C85.5944 12.163 85.5944 12.163 85.5785 13.1423C85.5339 15.7223 85.4893 18.3022 85.4479 20.879C85.4416 21.3766 85.4065 21.871 85.3046 22.3591C84.9958 23.8139 84.2092 24.8947 82.7507 25.3352C80.5376 26.004 78.4008 25.8106 76.3691 24.6443C75.9902 24.4256 75.9583 24.2323 76.194 23.8963C76.4233 23.5698 76.5315 23.0596 76.8341 22.9074C77.1652 22.7426 77.506 23.2117 77.8626 23.367C78.8339 23.7949 79.837 23.9945 80.891 23.8361C82.6711 23.5698 83.5468 22.3781 83.3144 20.5176ZM80.7859 13.8269C79.0345 13.7921 77.8658 14.9711 77.8563 16.7809C77.8467 18.5811 79.0218 19.8267 80.77 19.8647C82.3559 19.8996 83.4513 18.692 83.4736 16.8823C83.4991 15.0535 82.4482 13.8618 80.7859 13.8269Z"/><path fill="#0BA04B" d="M46.4958 17.339C45.4195 17.32 44.3463 17.3232 43.27 17.2757C42.7605 17.2535 42.7828 17.4405 42.9547 17.7986C43.461 18.8477 44.7157 19.4753 46.1646 19.3802C46.8811 19.3326 47.5722 19.1678 48.1772 18.7748C48.4542 18.5941 48.6166 18.6258 48.8491 18.8604C49.7503 19.7732 49.7694 19.8239 48.6135 20.4356C46.7506 21.4213 44.8367 21.4086 42.9834 20.4578C41.0727 19.4784 40.248 17.2344 40.8307 14.9144C41.337 12.8923 43.2063 11.428 45.3303 11.3741C48.3046 11.2981 50.6197 13.1934 50.3139 17.0062C50.2885 17.3295 50.142 17.4088 49.8331 17.3993C48.7217 17.3644 47.6104 17.3581 46.4958 17.339ZM47.7346 15.7797C48.1422 15.805 48.225 15.6687 48.1517 15.2979C47.9065 14.0777 46.8939 13.2916 45.5182 13.2821C44.1298 13.2726 43.0598 14.0808 42.8146 15.2947C42.7541 15.599 42.8146 15.7004 43.1362 15.6973C43.9228 15.6909 44.7093 15.7163 45.4927 15.7321C46.2411 15.7448 46.9894 15.7353 47.7346 15.7797Z"/><path fill="#0BA04B" d="M72.0859 20.3939C70.5892 21.7409 68.9301 21.779 67.2042 21.1514C66.1692 20.7742 65.5355 20.0072 65.4368 18.8852C65.3349 17.7157 65.7871 16.8029 66.7902 16.1658C68.1722 15.2879 69.6657 15.3576 71.1879 15.6365C71.2834 15.6524 71.3726 15.6841 71.4681 15.7031C72.2356 15.8711 72.2865 15.8077 72.0923 15.009C71.8916 14.1754 71.3248 13.7539 70.516 13.6334C69.3536 13.456 68.2168 13.5954 67.1214 14.0043C66.7774 14.1342 66.6055 14.1469 66.4749 13.7254C66.1214 12.5939 66.096 12.5939 67.2487 12.2294C68.2996 11.8966 69.3727 11.7413 70.4809 11.7983C72.7928 11.9219 74.159 13.2309 74.2131 15.5383C74.2545 17.4083 74.1653 19.2846 74.1494 21.1577C74.1462 21.4462 74.0379 21.5254 73.7736 21.4937C73.6399 21.4779 73.5062 21.4874 73.3692 21.4842C73.003 21.4747 72.5858 21.5761 72.2897 21.4303C71.9458 21.2528 72.2547 20.7616 72.0859 20.3939ZM68.1499 17.3037C67.3602 17.8045 67.2424 18.9455 67.978 19.5033C68.8983 20.2006 69.93 20.1974 70.9713 19.7537C71.898 19.3575 72.1751 18.6032 72.1368 17.6587C72.1273 17.3924 72.0732 17.253 71.7866 17.1769C71.2452 17.0343 70.7038 16.936 70.1466 16.9075C69.446 16.8695 68.7582 16.917 68.1499 17.3037Z"/><path fill="#0BA04B" d="M92.2849 12.1596C95.1796 12.2103 97.3259 14.3497 97.2686 17.1293C97.2113 19.9121 94.9949 21.9659 92.1002 21.912C89.1833 21.8581 87.0656 19.7156 87.1261 16.8757C87.1866 14.1183 89.3871 12.1089 92.2849 12.1596ZM92.1353 20.0579C93.8644 20.0832 95.1254 18.8471 95.1732 17.0849C95.221 15.3195 94.0236 14.0581 92.2595 14.0137C90.4825 13.9725 89.2406 15.161 89.2056 16.9359C89.1674 18.7489 90.3743 20.0325 92.1353 20.0579Z"/></svg>