<svg width="70" height="30" viewBox="0 0 70 30" fill="none" xmlns="http://www.w3.org/2000/svg">
<path d="M13.8017 18.6256C13.4001 22.2001 12.7542 26.0504 12.2388 27.5094C12.2388 27.5094 10.826 28.4389 8.90844 28.3972C6.67192 28.4335 5.40149 27.4176 5.40149 27.4176C5.49734 27.4605 5.59752 27.4932 5.70034 27.5152C6.17149 27.7991 7.26963 28.328 8.87856 28.3006C10.7586 28.3413 12.144 27.4303 12.144 27.4303C12.6347 26.0407 13.2458 22.446 13.6407 19.0325C13.6942 18.9 13.7478 18.7643 13.8017 18.6256Z" fill="#073763"/>
<path d="M13.6413 19.0355C13.2464 22.4489 12.6349 26.0452 12.1446 27.4332C12.1446 27.4332 10.7592 28.3443 8.87914 28.3035C7.27021 28.3295 6.17208 27.8006 5.70093 27.5181C6.7152 27.7525 10.1599 27.7909 13.6413 19.0355Z" fill="#073763"/>
<path d="M8.78276 2.80013C8.78276 2.80013 8.7172 2.84968 8.59979 2.95389C6.98355 3.00434 3.67695 3.38526 3.67695 3.38526C3.43908 6.6459 3.44854 10.7699 3.46348 12.3996C3.41204 12.5833 3.36122 12.7698 3.311 12.9593C3.2372 13.2436 3.2125 7.39596 3.51563 3.23785C3.51593 3.23905 7.35925 2.79439 8.78276 2.80013Z" fill="#073763"/>
<path d="M8.59929 2.95355C7.87473 3.59245 5.17132 6.29847 3.46298 12.3992C3.44804 10.7701 3.43858 6.64586 3.67645 3.38492C3.67645 3.38492 6.98427 3.004 8.59929 2.95355Z" fill="#073763"/>
<path d="M14.6777 15.8809C16.4682 8.63242 15.3597 2.14055 12.2018 1.38085C9.04394 0.62116 5.03249 5.88132 3.24199 13.1298C1.45149 20.3782 2.55996 26.8701 5.71784 27.6298C8.87572 28.3895 12.8872 23.1293 14.6777 15.8809Z" fill="#F8F9FD"/>
<path d="M5.96265 7.87936C5.96265 7.87936 8.29767 4.29278 10.5013 4.29278C12.7048 4.29278 13.3422 7.08489 13.3422 9.77853C13.4501 12.574 12.3124 16.8937 10.8343 20.3295C10.8343 20.3295 14.5242 14.6719 14.5242 7.96575C14.5242 5.25702 13.6234 2.28336 11.6476 2.28336C8.81121 2.28336 5.96265 7.87936 5.96265 7.87936Z" fill="#073763"/>
<path d="M3.31801 17.9713C3.31801 19.9493 3.85534 24.4282 6.48647 24.4282C11.5014 24.4282 14.5235 12.9607 14.9641 9.13397C15.2499 13.6005 11.4069 26.8617 6.11473 26.8617C2.41658 26.8617 3.31801 17.9713 3.31801 17.9713Z" fill="#073763"/>
<path d="M11.6363 13.5302C11.6363 13.5302 12.1709 13.0656 12.2255 12.5898C12.3581 11.4322 10.8837 9.83331 8.66852 9.83331V17.778C8.66852 17.778 12.1709 17.6381 12.4438 14.7626C12.5228 13.9292 11.6363 13.5302 11.6363 13.5302ZM9.92309 11.4395C10.6943 11.4395 11.1603 11.9811 11.1603 12.4028C11.1704 12.5388 11.1362 12.6744 11.0628 12.7897C10.9893 12.905 10.8805 12.994 10.7523 13.0435H9.92309V11.4395ZM11.2707 15.497C10.8508 16.1132 9.92309 16.1987 9.92309 16.1987V14.2956C11.2106 14.166 11.2996 14.4119 11.3701 14.582C11.4543 14.7789 11.4469 15.2161 11.2707 15.497Z" fill="#073763"/>
<path d="M8.15188 9.83429V17.779C7.73832 17.7795 7.3258 17.738 6.92079 17.6551L5.07949 12.7415V16.9195C4.7161 16.6902 4.38752 16.4108 4.10364 16.0897L4.12437 11.4981C4.48123 11.1028 4.90419 10.7713 5.37468 10.5182L6.98849 14.3048V9.94606C7.37176 9.87184 7.76136 9.83441 8.15188 9.83429Z" fill="#073763"/>
<path d="M29.6257 6.33914L29.5684 6.39171C29.3598 6.39812 29.1516 6.41567 28.9449 6.44429C28.898 6.45426 28.8553 6.4783 28.8228 6.51312C28.7903 6.54793 28.7695 6.59182 28.7632 6.63876C28.7174 6.89165 28.6943 7.43493 28.6939 8.2686V10.4033C28.6939 11.9772 28.717 13.0025 28.7632 13.4792L28.6939 13.5267C28.2927 13.46 27.989 13.4127 27.7827 13.3848C26.8302 12.3296 25.2045 10.4052 22.9056 7.61169V11.05C22.9056 11.8845 22.9288 12.4277 22.975 12.6799C22.9806 12.7269 23.001 12.7711 23.0334 12.8061C23.0658 12.8411 23.1085 12.8652 23.1555 12.8749C23.3624 12.9035 23.5708 12.9211 23.7796 12.9275L23.8329 12.9801V13.3379L23.7802 13.3837C23.371 13.3622 22.9907 13.3517 22.6392 13.352C22.2304 13.352 21.82 13.3626 21.4082 13.3837L21.3549 13.3362V12.9784L21.4082 12.9258C21.6168 12.9193 21.825 12.9018 22.0317 12.8732C22.0787 12.8636 22.1215 12.8397 22.154 12.8048C22.1865 12.7699 22.2071 12.7258 22.2128 12.6787C22.2594 12.4266 22.2825 11.8833 22.2821 11.0489V8.26747C22.2821 7.4338 22.259 6.89052 22.2128 6.63763C22.2071 6.59058 22.1865 6.5465 22.154 6.51161C22.1215 6.47671 22.0787 6.45277 22.0317 6.44316C21.825 6.41457 21.6168 6.39702 21.4082 6.39058L21.3549 6.338V5.98072L21.4082 5.93323C21.7455 5.95433 22.067 5.96489 22.3727 5.96489C22.8522 5.96489 23.2503 5.95433 23.567 5.93323C24.8461 7.61565 26.3492 9.41905 28.0761 11.3434V8.2686C28.0761 7.43493 28.053 6.89165 28.0068 6.63876C28.0005 6.59189 27.9798 6.54807 27.9474 6.51326C27.915 6.47845 27.8725 6.45436 27.8257 6.44429C27.6187 6.41568 27.4104 6.39813 27.2016 6.39171L27.1483 6.33914V5.98185L27.2016 5.93436C27.5997 5.95546 27.9781 5.96602 28.3369 5.96602C28.7953 5.96602 29.2076 5.95546 29.5736 5.93436L29.6269 5.98185L29.6257 6.33914Z" fill="#073763"/>
<path d="M33.3097 13.3365L33.2564 13.3891C32.9183 13.3642 32.4313 13.3519 31.7956 13.3523C31.1598 13.3527 30.6748 13.3649 30.3405 13.3891L30.2872 13.3365V13.0159L30.3405 12.9634C30.6813 12.9524 30.8927 12.9261 30.9749 12.8842C31.0459 12.8526 31.0851 12.7685 31.0924 12.6321C31.1168 12.1764 31.1292 11.6865 31.1296 11.1622V10.4103C31.1296 9.73194 31.1029 9.32886 31.0494 9.2011C31.0207 9.131 30.9443 9.08709 30.8202 9.06938C30.7777 9.06259 30.623 9.05355 30.3565 9.04337L30.3032 8.9908V8.69626L30.3565 8.63973C31.0594 8.57567 31.752 8.42915 32.4197 8.20329L32.5343 8.2717C32.4881 8.90939 32.4649 9.44739 32.4649 9.88571V11.563C32.4649 11.8186 32.4773 12.1744 32.5022 12.6304C32.5091 12.7664 32.5473 12.8505 32.6168 12.8825C32.6982 12.9244 32.9095 12.9507 33.2506 12.9617L33.308 13.0142L33.3097 13.3365ZM32.5738 6.47508C32.5756 6.58202 32.5552 6.6882 32.5141 6.78714C32.4729 6.88608 32.4117 6.97571 32.3343 7.05058C32.2587 7.12632 32.1687 7.18648 32.0694 7.22754C31.97 7.2686 31.8634 7.28974 31.7557 7.28974C31.648 7.28974 31.5414 7.2686 31.4421 7.22754C31.3428 7.18648 31.2527 7.12632 31.1772 7.05058C31.0618 6.93646 30.9831 6.79123 30.951 6.63314C30.919 6.47506 30.935 6.31115 30.9971 6.16203C31.0592 6.0129 31.1646 5.88519 31.3 5.79494C31.4354 5.7047 31.5949 5.65594 31.7583 5.65478C31.8651 5.65386 31.971 5.67438 32.0695 5.7151C32.1681 5.75582 32.2572 5.81589 32.3314 5.89166C32.4102 5.96733 32.4724 6.05816 32.5141 6.15853C32.5558 6.25889 32.5761 6.36664 32.5738 6.47508Z" fill="#073763"/>
<path d="M39.5666 13.7152C39.5666 14.4825 39.2763 15.094 38.6955 15.5497C38.1148 16.0053 37.3552 16.2332 36.4169 16.2332C35.681 16.2332 35.0992 16.0975 34.6713 15.8261C34.2433 15.5548 34.0292 15.1892 34.0288 14.7294C34.0288 14.4211 34.0982 14.1882 34.2368 14.0306C34.2514 14.0125 34.4397 13.8968 34.8019 13.6835C34.9738 13.5818 35.1039 13.51 35.1853 13.4676C34.6951 13.3839 34.45 13.1508 34.45 12.7683C34.4564 12.5446 34.5306 12.3279 34.6632 12.1464C34.755 12.0714 34.8506 12.0012 34.9498 11.9361C35.0354 11.8769 35.1865 11.7701 35.4031 11.6155C34.6351 11.3419 34.2514 10.8354 34.2517 10.0959C34.2517 9.5242 34.4684 9.06402 34.9016 8.7154C35.3349 8.36678 35.9124 8.19247 36.6341 8.19247C37.3306 8.19247 37.876 8.34492 38.2703 8.64983C38.4946 8.66076 38.6386 8.66434 38.7024 8.66057C38.8762 8.65341 39.1391 8.64455 39.491 8.634L39.5552 8.69053L39.4979 9.23212L39.4405 9.28469H38.652C38.6978 9.45262 38.7209 9.6258 38.7207 9.79971C38.7207 10.6341 38.3104 11.2038 37.4897 11.5087C37.1411 11.6412 36.771 11.7105 36.3974 11.7133C36.2763 11.7133 36.1198 11.7047 35.928 11.6873C35.7038 11.8068 35.5918 11.9628 35.5922 12.1554C35.5922 12.3341 35.7219 12.4357 35.9813 12.4601C36.1304 12.4745 36.3787 12.4814 36.7264 12.4811C36.8364 12.4811 37.0274 12.4758 37.2995 12.4652C37.5728 12.4551 37.7751 12.4494 37.9069 12.4494C38.7093 12.4494 39.2084 12.6247 39.4044 12.9752C39.5126 13.167 39.5666 13.4137 39.5666 13.7152ZM38.3459 14.3144C38.3459 13.9323 38.2111 13.6922 37.9413 13.5942C37.8267 13.552 37.5992 13.5292 37.2588 13.5258L36.2461 13.5151C36.1315 13.5151 35.9752 13.5186 35.7773 13.5258C35.2902 13.8239 35.0466 14.1656 35.0466 14.5507C35.0412 14.7144 35.0781 14.8767 35.1536 15.0224C35.2292 15.1682 35.3411 15.2926 35.4787 15.384C35.7664 15.586 36.1519 15.6869 36.6352 15.6865C37.1537 15.6865 37.5686 15.5629 37.88 15.3156C38.1914 15.0684 38.3467 14.7347 38.3459 14.3144ZM37.3763 10.04C37.3763 9.15655 37.076 8.71484 36.4754 8.71484C35.8858 8.71484 35.5909 9.09681 35.5905 9.86076C35.5905 10.7653 35.8979 11.2176 36.5126 11.2176C37.0884 11.2176 37.3763 10.825 37.3763 10.04Z" fill="#073763"/>
<path d="M44.7553 10.4024C44.7553 10.4624 44.7553 10.5517 44.7496 10.671L44.6923 10.7445C44.2235 10.8707 43.6017 10.9338 42.8269 10.9338C42.6882 10.9338 42.4784 10.9338 42.1965 10.9418C41.9145 10.9497 41.7047 10.9491 41.5626 10.9491C41.5836 11.4647 41.7452 11.8906 42.0475 12.2268C42.3638 12.5878 42.776 12.7683 43.2842 12.7683C43.6254 12.7683 44.0303 12.6528 44.4991 12.4218L44.6269 12.5739L44.3925 13.0945C43.8895 13.4161 43.3024 13.586 42.7031 13.5835C41.9034 13.5835 41.2824 13.361 40.84 12.9159C40.3975 12.4708 40.1765 11.8363 40.1769 11.0124C40.1769 10.0344 40.413 9.36486 40.8852 9.0038C41.5389 8.50631 42.159 8.25757 42.7455 8.25757C43.3816 8.25757 43.8739 8.4381 44.2223 8.79916C44.5754 9.17077 44.753 9.70519 44.7553 10.4024ZM43.3638 10.2656C43.3638 9.31926 43.0655 8.84608 42.4687 8.84608C41.8394 8.84608 41.525 9.31587 41.5254 10.2554V10.3685C41.7313 10.4002 42.0971 10.416 42.6228 10.416C42.869 10.4178 43.1149 10.402 43.3587 10.3685C43.3606 10.3214 43.3616 10.2871 43.3616 10.2656H43.3638Z" fill="#073763"/>
<path d="M49.3738 8.27326L49.3365 9.20888C49.3331 9.36321 49.3256 9.53846 49.3153 9.73463L49.0912 9.80304C49.0167 9.68968 48.9138 9.59722 48.7924 9.53463C48.671 9.47203 48.5353 9.44142 48.3984 9.44575C48.2709 9.44381 48.1448 9.47133 48.03 9.52611C47.9153 9.58089 47.8151 9.6614 47.7376 9.7612C47.631 9.89085 47.5777 10.0817 47.5777 10.3339V11.5646C47.5777 11.8201 47.5901 12.1759 47.615 12.6319C47.6218 12.7612 47.6591 12.8453 47.7267 12.8841C47.7943 12.9229 48.0413 12.9493 48.4677 12.9632L48.521 13.0102V13.3313L48.4677 13.3838C47.9451 13.3624 47.4262 13.3518 46.9112 13.3522C46.2751 13.3522 45.79 13.3644 45.4561 13.3889L45.4028 13.3364V13.0158L45.4561 12.9632C45.7973 12.9523 46.0088 12.9259 46.0905 12.8841C46.1616 12.8524 46.1998 12.7684 46.2052 12.6319C46.2304 12.1763 46.243 11.6863 46.243 11.1621V10.4102C46.243 9.70919 46.2162 9.30611 46.1628 9.20096C46.1272 9.13086 46.0508 9.08696 45.9335 9.06924C45.8911 9.06246 45.7364 9.05341 45.4699 9.04323L45.4166 8.99066V8.69612L45.4699 8.63959C46.1577 8.56943 46.8354 8.42303 47.49 8.20316L47.6046 8.27156L47.5943 9.30159C47.8144 9.04945 48.0818 8.75511 48.3967 8.41855C48.5422 8.27834 48.7413 8.20824 48.9938 8.20824C49.1236 8.205 49.2527 8.22709 49.3738 8.27326Z" fill="#073763"/>
<path d="M52.7158 13.3365L52.6625 13.3891C52.3247 13.3642 51.838 13.3519 51.2022 13.3523C50.5665 13.3527 50.0814 13.3649 49.7471 13.3891L49.6938 13.3365V13.0159L49.7471 12.9634C50.0883 12.9524 50.2998 12.9261 50.3816 12.8842C50.4526 12.8526 50.4908 12.7685 50.4962 12.6321C50.5214 12.1764 50.5338 11.6865 50.5334 11.1622V10.4103C50.5334 9.73194 50.5069 9.32886 50.4538 9.20109C50.4251 9.13099 50.3487 9.08708 50.2245 9.06937C50.1821 9.06259 50.0274 9.05354 49.7609 9.04336L49.7076 8.99079V8.69625L49.7609 8.63972C50.4637 8.57562 51.1563 8.42911 51.824 8.20328L51.9386 8.27169C51.8928 8.90938 51.8699 9.44739 51.8699 9.88571V11.563C51.8699 11.8186 51.8823 12.1744 51.9071 12.6304C51.914 12.7664 51.9522 12.8505 52.0217 12.8825C52.1035 12.9244 52.315 12.9507 52.6562 12.9617L52.7135 13.0142L52.7158 13.3365ZM51.9805 6.47507C51.982 6.58203 51.9614 6.68817 51.9202 6.78708C51.8789 6.886 51.8177 6.97563 51.7404 7.05058C51.6649 7.1263 51.5749 7.18644 51.4756 7.22749C51.3763 7.26855 51.2698 7.28969 51.1621 7.28969C51.0545 7.28969 50.9479 7.26855 50.8486 7.22749C50.7493 7.18644 50.6593 7.1263 50.5839 7.05058C50.4684 6.93645 50.3898 6.79123 50.3577 6.63314C50.3257 6.47505 50.3417 6.31115 50.4038 6.16202C50.4659 6.01289 50.5713 5.88518 50.7067 5.79493C50.8421 5.70469 51.0015 5.65593 51.165 5.65478C51.2718 5.65398 51.3776 5.67456 51.4761 5.71528C51.5746 5.75599 51.6637 5.81599 51.7381 5.89165C51.8168 5.96732 51.879 6.05816 51.9207 6.15852C51.9624 6.25888 51.9828 6.36663 51.9805 6.47507Z" fill="#073763"/>
<path d="M58.2271 13.3202L58.1698 13.3768C57.871 13.3594 57.5271 13.3508 57.1382 13.3508C56.8364 13.3508 56.5468 13.3594 56.2694 13.3768L56.2212 13.3202L56.2694 12.6158L55.2378 13.3937C55.133 13.4611 55.0116 13.4992 54.8865 13.504C54.8157 13.5118 54.7445 13.5153 54.6733 13.5147C54.2786 13.5147 53.9757 13.3973 53.7644 13.1625C53.5531 12.9277 53.4473 12.6034 53.4469 12.1896C53.4469 11.6431 53.6228 11.2558 53.9747 11.0278C54.3568 10.7791 55.1226 10.5548 56.2722 10.3551C56.2722 9.79767 56.1229 9.42437 55.8241 9.23517C55.6294 9.11564 55.4034 9.05528 55.1742 9.06161C54.8968 9.06161 54.6783 9.11815 54.5186 9.23121L54.3157 9.72022L54.2464 9.75697L53.9747 9.69422L53.9375 9.62016L53.9644 8.9983C54.5509 8.57091 54.9914 8.32913 55.286 8.27298C55.446 8.24516 55.6083 8.23266 55.7708 8.23567C56.4711 8.23567 56.9705 8.4162 57.2689 8.77725C57.4855 9.04107 57.5938 9.44434 57.5938 9.98706C57.5938 10.1201 57.5884 10.3338 57.5777 10.6281C57.5602 11.1181 57.5514 11.4458 57.5514 11.6113C57.5514 12.1412 57.5602 12.4787 57.5777 12.6238C57.5953 12.7689 57.6372 12.8608 57.7033 12.8996C57.7686 12.9381 57.9262 12.9613 58.1749 12.968L58.2282 13.0246L58.2271 13.3202ZM56.2711 12.0952V10.8017C55.6846 10.9276 55.2892 11.0634 55.0848 11.2093C54.8804 11.3552 54.7784 11.5768 54.7788 11.8741C54.7788 12.352 54.9908 12.591 55.4149 12.591C55.7721 12.591 56.0575 12.4257 56.2711 12.0952Z" fill="#073763"/>
<path d="M64.9161 13.331L64.8628 13.3875C64.472 13.3626 64.1415 13.3504 63.8714 13.3507C63.6226 13.3507 63.2597 13.363 62.7825 13.3875L62.7292 13.3349C62.7926 12.5532 62.8245 11.9502 62.8249 11.5259V10.4992C62.8249 9.64406 62.5122 9.21629 61.8867 9.21592C61.5601 9.21592 61.3043 9.32635 61.1194 9.5472C60.9627 9.73338 60.8846 9.92088 60.885 10.1097V11.0934C60.885 12.0013 60.9081 12.5585 60.9543 12.7651C60.9826 12.8875 61.1885 12.9524 61.5721 12.9595L61.6254 13.0121V13.3332L61.5721 13.3858C61.2703 13.3643 60.8191 13.3538 60.2185 13.3541C59.5823 13.3541 59.0973 13.3664 58.7634 13.3909L58.7101 13.3383V13.0178L58.7634 12.9652C59.1046 12.9543 59.316 12.9279 59.3978 12.886C59.4689 12.8544 59.5071 12.7703 59.5124 12.6339C59.5369 12.1782 59.5493 11.6883 59.5497 11.164V10.4122C59.5497 9.71115 59.5229 9.30807 59.4694 9.20292C59.4339 9.13281 59.3575 9.08891 59.2402 9.07119C59.1978 9.06441 59.0431 9.05536 58.7766 9.04519L58.7233 8.99261V8.69808L58.7766 8.64154C59.4644 8.57139 60.1421 8.42498 60.7967 8.20511L60.9113 8.27351L60.9004 9.15656L61.8174 8.39958C62.063 8.30269 62.3255 8.25447 62.5899 8.25768C63.155 8.25768 63.5779 8.42596 63.8588 8.76252C64.0857 9.03577 64.2003 9.43696 64.2026 9.96611C64.2026 10.026 64.1955 10.2697 64.1814 10.6971C64.1673 11.1245 64.16 11.4294 64.1596 11.6118C64.1596 12.1417 64.1686 12.4792 64.1866 12.6243C64.2045 12.7694 64.2454 12.8614 64.3092 12.9002C64.3728 12.9386 64.5579 12.9618 64.8634 12.9686L64.9115 13.0212L64.9161 13.331Z" fill="#073763"/>
<path d="M27.5939 22.3931C27.5939 23.2728 27.1631 23.9546 26.3016 24.4385C25.8762 24.6767 25.3284 24.7958 24.6582 24.7958C24.4455 24.7958 24.27 24.7941 24.1316 24.7907L22.861 24.763C22.407 24.763 22.0559 24.7735 21.8077 24.7946L21.7546 24.7421V24.5951L21.7814 24.5318C22.0433 24.3672 22.1857 24.2638 22.2069 24.2214C22.2389 24.1586 22.2578 23.9257 22.264 23.5221L22.2801 22.3445V19.6801C22.2801 18.8457 22.257 18.3024 22.2109 18.0502C22.2052 18.0032 22.1846 17.9591 22.1522 17.9242C22.1198 17.8893 22.0771 17.8654 22.0302 17.8558C21.8239 17.8272 21.6162 17.8096 21.408 17.8032L21.3549 17.7506V17.3928L21.408 17.3458C21.7229 17.367 22.2654 17.3773 23.0354 17.3769C23.5241 17.3769 23.9654 17.3683 24.3592 17.3509C24.6714 17.337 24.9356 17.33 25.1517 17.33C26.1409 17.33 26.789 17.5526 27.0959 17.9977C27.26 18.2361 27.3455 18.5189 27.3406 18.8072C27.3406 19.3055 27.1439 19.72 26.7505 20.051C26.5769 20.2001 26.3792 20.3191 26.1655 20.4032C25.9156 20.4956 25.6596 20.5712 25.3993 20.6293C26.8628 20.6941 27.5943 21.2821 27.5939 22.3931ZM25.7378 19.065C25.7378 18.2905 25.3301 17.9031 24.5147 17.9027C24.2852 17.9001 24.0559 17.9143 23.8285 17.9451C23.8144 18.3129 23.8074 18.6521 23.8074 18.9627V20.4139C23.8891 20.4207 24.0521 20.4246 24.2968 20.4246C24.9384 20.4246 25.3602 20.2213 25.5623 19.8146C25.6787 19.5816 25.7388 19.325 25.7378 19.065ZM25.9665 22.5559C25.9665 21.5044 25.4081 20.9787 24.2911 20.9787C24.1493 20.9787 23.9881 20.9839 23.8074 20.9945V23.4288C23.8074 23.6926 23.8144 23.9502 23.8285 24.2016C24.0311 24.2301 24.2357 24.2423 24.4404 24.2384C24.9359 24.2384 25.3189 24.0842 25.5891 23.7759C25.8407 23.4816 25.9665 23.0757 25.9665 22.5582V22.5559Z" fill="#073763"/>
<path d="M32.4388 19.6845L32.4016 20.6207C32.3976 20.775 32.3907 20.9503 32.3799 21.1464L32.1569 21.2148C32.0825 21.1015 31.9797 21.009 31.8587 20.9463C31.7376 20.8836 31.6022 20.8529 31.4656 20.857C31.3383 20.8551 31.2124 20.8826 31.0978 20.9374C30.9832 20.9922 30.8832 21.0726 30.8057 21.1724C30.6993 21.3025 30.6461 21.493 30.6461 21.7457V22.9758C30.6461 23.2317 30.6587 23.5875 30.6839 24.0432C30.6907 24.1732 30.7279 24.2569 30.7954 24.2959C30.8629 24.3349 31.1093 24.3603 31.5347 24.3745L31.5879 24.4219V24.7425L31.5347 24.7951C31.0132 24.7743 30.4956 24.7638 29.9817 24.7634C29.347 24.7634 28.863 24.7757 28.5299 24.8001L28.4767 24.7476V24.427L28.5299 24.3745C28.8703 24.3643 29.0813 24.3381 29.1629 24.2959C29.2338 24.2642 29.2719 24.18 29.2772 24.0432C29.3024 23.5875 29.3148 23.0985 29.3144 22.5761V21.8226C29.3144 21.1215 29.2879 20.7185 29.2349 20.6133C29.1995 20.5432 29.1232 20.4995 29.0062 20.4822C28.9633 20.4754 28.8095 20.4663 28.5436 20.4556L28.4904 20.403V20.1085L28.5436 20.0519C29.23 19.9823 29.9062 19.8359 30.5592 19.6155L30.6736 19.6839L30.6633 20.7145C30.8829 20.4624 31.1497 20.168 31.4638 19.8315C31.6091 19.6913 31.8075 19.6212 32.0591 19.6212C32.1886 19.6176 32.3176 19.6391 32.4388 19.6845Z" fill="#073763"/>
<path d="M37.5131 21.8134C37.5131 21.8725 37.5114 21.9619 37.508 22.0813L37.4508 22.1548C36.9827 22.2815 36.3621 22.3446 35.589 22.3442C35.4514 22.3442 35.2417 22.3468 34.96 22.3521C34.6783 22.3574 34.4673 22.36 34.327 22.36C34.3483 22.8749 34.5098 23.3007 34.8113 23.6377C35.1266 23.9987 35.5377 24.1793 36.0447 24.1793C36.3855 24.1793 36.7898 24.0636 37.2575 23.8322L37.385 23.9848L37.1512 24.5055C36.6491 24.8267 36.0634 24.9966 35.4655 24.9945C34.6672 24.9945 34.0476 24.7717 33.6065 24.3263C33.1654 23.8808 32.9447 23.2465 32.9443 22.4234C32.9443 21.4453 33.1801 20.7758 33.6517 20.4147C34.3039 19.9172 34.9226 19.6683 35.5078 19.6679C36.1425 19.6679 36.6335 19.8485 36.9808 20.2095C37.3357 20.5808 37.5131 21.1154 37.5131 21.8134ZM36.1253 21.6766C36.1253 20.7302 35.8274 20.257 35.2316 20.257C34.6045 20.257 34.2908 20.7266 34.2904 21.6658V21.7789C34.4962 21.8105 34.8614 21.8264 35.386 21.8264C35.6316 21.8282 35.8769 21.8123 36.1202 21.7789C36.1229 21.7321 36.1242 21.698 36.1242 21.6766H36.1253Z" fill="#073763"/>
<path d="M46.824 20.1683L46.7668 20.2208C46.5575 20.2276 46.4237 20.2429 46.3666 20.2655C46.3069 20.2907 46.2562 20.3328 46.2207 20.3865C46.1796 20.4441 46.1033 20.6201 45.992 20.9145C45.8613 21.2654 45.7318 21.63 45.6038 22.0084L44.9873 23.8378C44.9336 23.9923 44.8804 24.1642 44.8278 24.3534L44.6837 24.8526H43.8117L43.2319 23.4438L42.3742 21.4928C41.8847 22.5059 41.4486 23.4786 41.0659 24.4111L40.8869 24.8526H40.0292C40.0189 24.8249 39.9868 24.6915 39.9337 24.4535C39.9016 24.3166 39.8572 24.147 39.8004 23.9447L39.0188 21.1898C38.901 20.7824 38.8184 20.5259 38.7712 20.4204C38.7432 20.3581 38.6946 20.307 38.6334 20.2757C38.5762 20.2497 38.4046 20.231 38.1187 20.2191L38.0656 20.1626V19.8522L38.1227 19.7997C38.3987 19.8098 38.8562 19.8151 39.4951 19.8155C40.1473 19.8155 40.6332 19.8102 40.9526 19.7997L41.0098 19.8522V20.1677L40.9526 20.2152C40.6759 20.2152 40.4912 20.227 40.3991 20.2519C40.3071 20.2768 40.2607 20.3288 40.2607 20.4097C40.2658 20.5147 40.2837 20.6187 40.3139 20.7195L40.9578 23.1436L42.2341 20.3356C42.3229 20.1253 42.4182 19.9027 42.52 19.6679H43.0626L44.5676 23.1436L45.0886 21.5765C45.2837 20.9916 45.3813 20.613 45.3813 20.4407C45.3813 20.3537 45.351 20.2988 45.291 20.2779C45.2309 20.257 45.0319 20.2378 44.6951 20.2214L44.638 20.1688V19.8585L44.7014 19.8019C44.9683 19.8121 45.3371 19.8174 45.8079 19.8177C46.1552 19.8177 46.4742 19.8125 46.7651 19.8019L46.8223 19.8545L46.824 20.1683Z" fill="#073763"/>
<path d="M51.8445 21.8134C51.8445 21.8699 51.8445 21.962 51.8388 22.0813L51.7816 22.1548C51.3139 22.2815 50.6935 22.3446 49.9204 22.3442C49.782 22.3442 49.5723 22.3468 49.2914 22.3521C49.0104 22.3574 48.7995 22.36 48.6584 22.36C48.6794 22.8749 48.8406 23.3007 49.1422 23.6377C49.4578 23.9987 49.8691 24.1793 50.3761 24.1793C50.7165 24.1793 51.1206 24.0636 51.5884 23.8322L51.7165 23.9848L51.482 24.5055C50.98 24.8268 50.3943 24.9967 49.7963 24.9945C48.9988 24.9945 48.3794 24.7717 47.9379 24.3263C47.4965 23.8808 47.2758 23.2465 47.2758 22.4234C47.2758 21.4453 47.5115 20.7758 47.9831 20.4147C48.635 19.9172 49.2537 19.6683 49.8392 19.6679C50.4735 19.6679 50.9645 19.8485 51.3122 20.2095C51.6671 20.5808 51.8445 21.1154 51.8445 21.8134ZM50.4562 21.6766C50.4562 20.7302 50.1585 20.257 49.563 20.257C48.9359 20.257 48.6222 20.7266 48.6218 21.6658V21.7789C48.8269 21.8105 49.1921 21.8264 49.7174 21.8264C49.9628 21.8282 50.208 21.8123 50.451 21.7789C50.4545 21.7321 50.4562 21.698 50.4562 21.6766Z" fill="#073763"/>
<path d="M56.4551 19.6845L56.4179 20.6207C56.4145 20.775 56.407 20.9503 56.3968 21.1464L56.1732 21.2148C56.0988 21.1014 55.9961 21.0089 55.875 20.9462C55.7539 20.8835 55.6185 20.8528 55.4819 20.857C55.3547 20.8551 55.2288 20.8826 55.1144 20.9374C54.9999 20.9922 54.8999 21.0727 54.8226 21.1724C54.7162 21.3025 54.663 21.493 54.663 21.7457V22.9758C54.663 23.2317 54.6754 23.5875 54.7002 24.0432C54.707 24.1732 54.7442 24.2569 54.8145 24.2959C54.8849 24.3349 55.1285 24.3603 55.5539 24.3745L55.6071 24.4219V24.7425L55.5539 24.7951C55.0328 24.7743 54.5151 24.7638 54.0009 24.7634C53.3661 24.7634 52.8822 24.7757 52.549 24.8001L52.4958 24.7476V24.427L52.549 24.3745C52.8921 24.3643 53.1003 24.3377 53.182 24.2959C53.2529 24.2642 53.291 24.18 53.2964 24.0432C53.3208 23.5875 53.3332 23.0985 53.3336 22.5761V21.8226C53.3336 21.1215 53.3069 20.7185 53.2535 20.6133C53.218 20.5432 53.1418 20.4995 53.0248 20.4822C52.9825 20.4754 52.8283 20.4665 52.5622 20.4556L52.509 20.403V20.1085L52.5622 20.0519C53.2486 19.9823 53.9248 19.8359 54.5778 19.6155L54.6922 19.6839L54.6813 20.7145C54.9009 20.4624 55.1677 20.168 55.4819 19.8315C55.6271 19.6913 55.8257 19.6212 56.0777 19.6212C56.2064 19.6179 56.3346 19.6394 56.4551 19.6845Z" fill="#073763"/>
<path d="M59.7893 24.7475L59.7362 24.8001C59.3992 24.776 58.9135 24.7637 58.2792 24.7633C57.6449 24.763 57.1609 24.7752 56.8274 24.8001L56.7742 24.7475V24.427L56.8274 24.3744C57.1678 24.3642 57.3788 24.338 57.4603 24.2958C57.5312 24.2642 57.5694 24.1799 57.5747 24.0431C57.5999 23.5875 57.6124 23.0984 57.6124 22.5761V21.8225C57.6124 21.1441 57.5858 20.741 57.5324 20.6133C57.5038 20.5432 57.4276 20.4994 57.3037 20.4821C57.2614 20.4753 57.1072 20.4665 56.8411 20.4555L56.7879 20.403V20.1084L56.8411 20.0519C57.5424 19.9884 58.2336 19.8419 58.8996 19.6155L59.014 19.6839C58.9678 20.3223 58.9448 20.8603 58.9448 21.2979V22.9758C58.9448 23.2317 58.9572 23.5875 58.9819 24.0431C58.9888 24.1799 59.0269 24.2642 59.0963 24.2958C59.1779 24.3377 59.3889 24.3638 59.7293 24.3744L59.7865 24.427L59.7893 24.7475ZM59.0557 17.8867C59.0572 17.9936 59.0367 18.0998 58.9955 18.1987C58.9543 18.2976 58.8933 18.3872 58.8161 18.4622C58.7408 18.5379 58.651 18.598 58.552 18.6391C58.4529 18.6801 58.3466 18.7013 58.2392 18.7013C58.1317 18.7013 58.0254 18.6801 57.9264 18.6391C57.8273 18.598 57.7375 18.5379 57.6622 18.4622C57.5467 18.3482 57.468 18.2029 57.4359 18.0447C57.4038 17.8866 57.4197 17.7225 57.4817 17.5733C57.5437 17.424 57.649 17.2963 57.7843 17.2061C57.9196 17.1159 58.0788 17.0673 58.242 17.0664C58.3485 17.0654 58.4542 17.0859 58.5525 17.1265C58.6508 17.1671 58.7397 17.227 58.8138 17.3027C58.8925 17.3784 58.9546 17.4693 58.9962 17.5698C59.0378 17.6703 59.0581 17.7781 59.0557 17.8867Z" fill="#073763"/>
<path d="M65.1556 21.8134C65.1556 21.8699 65.1556 21.962 65.1499 22.0813L65.0927 22.1548C64.6249 22.2815 64.0045 22.3446 63.2315 22.3442C63.0931 22.3442 62.8834 22.3468 62.6025 22.3521C62.3215 22.3574 62.1107 22.36 61.97 22.36C61.991 22.8749 62.1523 23.3007 62.4538 23.6377C62.7694 23.9987 63.1808 24.1793 63.6878 24.1793C64.0282 24.1793 64.4322 24.0636 64.9 23.8322L65.0275 23.9848L64.7936 24.5055C64.2916 24.8268 63.7059 24.9967 63.1079 24.9945C62.3105 24.9945 61.6908 24.7717 61.249 24.3263C60.8072 23.8808 60.5866 23.2465 60.5874 22.4234C60.5874 21.4453 60.823 20.7758 61.2942 20.4147C61.9464 19.9172 62.5651 19.6683 63.1503 19.6679C63.785 19.6679 64.2761 19.8485 64.6238 20.2095C64.9779 20.5808 65.1552 21.1154 65.1556 21.8134ZM63.7672 21.6766C63.7672 20.7302 63.4695 20.257 62.8741 20.257C62.2462 20.257 61.9325 20.7266 61.9329 21.6658V21.7789C62.1383 21.8105 62.5033 21.8264 63.0279 21.8264C63.2735 21.8282 63.5189 21.8123 63.7621 21.7789C63.7655 21.7321 63.7672 21.698 63.7672 21.6766Z" fill="#073763"/>
<path d="M70.0001 23.1132C70.0001 23.6786 69.7847 24.1335 69.3539 24.4779C68.9232 24.8224 68.3603 24.995 67.6654 24.9958C67.1725 24.9958 66.6443 24.8906 66.0809 24.6803L66.0237 24.6012C66.0557 24.2789 66.0748 24.0283 66.0809 23.8493L66.1072 23.1867L66.1603 23.1302H66.4743L66.5383 23.1867C66.552 23.5798 66.5679 23.8112 66.5858 23.8809C66.7225 24.0635 66.9016 24.2109 67.108 24.3107C67.3144 24.4105 67.542 24.4597 67.7717 24.4542C68.0839 24.4542 68.334 24.3788 68.5219 24.2281C68.6135 24.156 68.6866 24.0638 68.7356 23.9587C68.7846 23.8537 68.8079 23.7387 68.8038 23.6232C68.8038 23.3043 68.662 23.0923 68.3784 22.9872C68.1432 22.912 67.9033 22.8524 67.6602 22.8085C67.0751 22.686 66.6834 22.5458 66.4851 22.3879C66.184 22.1493 66.0332 21.7969 66.0328 21.3307C66.0328 20.8223 66.2191 20.414 66.5915 20.1057C66.9815 19.7834 67.5096 19.6223 68.176 19.6223C68.7432 19.6223 69.2148 19.7165 69.5906 19.905L69.6387 19.9892C69.6006 20.1468 69.5704 20.5515 69.5483 21.2035L69.4912 21.2561H69.1881L69.1309 21.2035C69.1224 20.9969 69.0976 20.7913 69.0566 20.5885C68.8332 20.3081 68.5092 20.1679 68.0845 20.1679C67.8077 20.1679 67.5807 20.2344 67.4035 20.3674C67.3192 20.4271 67.251 20.5061 67.2047 20.5977C67.1583 20.6894 67.1353 20.7908 67.1376 20.8932C67.1376 21.1845 67.2883 21.3792 67.5899 21.4772C67.7241 21.519 67.9863 21.5785 68.3767 21.6558C68.9725 21.7711 69.3661 21.9044 69.5575 22.0555C69.8529 22.291 70.0004 22.6436 70.0001 23.1132Z" fill="#073763"/>
</svg>
