<svg xmlns="http://www.w3.org/2000/svg" width="72" height="14" fill="none" viewBox="0 0 72 14"><path fill="#073763" d="M7.2863 0.500031L8.74696 5.05806H8.78869L7.32803 0.500031H7.2863ZM13.661 5.66793L13.6193 5.70003L9.84245 8.52472L11.2822 13.1041L11.2927 13.1362L11.324 13.1148L9.89462 8.53542L13.6715 5.70003L13.661 5.66793ZM6.9733 10.6753L3.18602 13.4786L3.21732 13.5L6.99417 10.686L6.9733 10.6753Z"/><path fill="#073763" d="M28.5455 7.36052C28.5455 7.80049 28.3602 7.93145 27.6649 8.18053C27.1082 8.39495 26.6796 8.48998 26.5519 8.48998C26.3199 8.48998 26.216 8.31151 26.216 7.94301C26.216 7.06351 26.4588 5.99354 27.3632 5.99354C28.1979 5.99354 28.5455 6.92098 28.5455 7.36052ZM19.5032 11.2004C19.5032 11.1289 19.4923 11.0818 19.4577 11.0459C19.3646 10.9505 19.017 10.8914 18.843 10.7129C18.7161 10.582 18.6343 10.3564 18.6343 9.83341V7.82403C18.6343 7.6691 18.6694 7.57451 18.82 7.57451H20.814C20.9647 7.57451 20.9993 7.6691 20.9993 7.82403V9.83341C20.9993 10.3564 20.9184 10.582 20.7907 10.7129C20.6166 10.8914 20.269 10.9505 20.1763 11.0459C20.1413 11.0818 20.13 11.1289 20.13 11.2004C20.13 11.509 20.1763 11.8188 20.2227 11.8659C20.269 11.9138 20.3387 11.9254 20.4893 11.9254H23.7466C23.8973 11.9254 23.9665 11.9139 24.0133 11.8659C24.0596 11.8188 24.1063 11.509 24.1063 11.2004C24.1063 11.1289 24.0943 11.0818 24.0596 11.0459C23.9786 10.9629 23.6189 10.8914 23.4449 10.7129C23.318 10.582 23.2483 10.3324 23.2483 9.928V4.37662C23.2483 4.09158 23.318 3.9007 23.4219 3.79456C23.6076 3.60411 23.9786 3.56816 24.0596 3.4847C24.0942 3.44918 24.1063 3.37814 24.1063 3.31865C24.1063 3.10466 24.0596 2.78366 24.0133 2.73616C23.9665 2.68865 23.9206 2.67624 23.7466 2.67624H20.6049C20.4777 2.67624 20.4313 2.68863 20.3967 2.7246C20.3621 2.76012 20.327 3.00964 20.327 3.33063C20.327 3.38969 20.3387 3.46116 20.3621 3.4847C20.4196 3.54462 20.7097 3.63964 20.8257 3.75862C20.953 3.88958 20.9993 4.03209 20.9993 4.43611V6.01709C20.9993 6.07658 20.9413 6.1596 20.8603 6.1596H18.7737C18.6923 6.1596 18.6343 6.07658 18.6343 6.01709V4.43611C18.6343 4.03209 18.6806 3.88958 18.8083 3.75862C18.9243 3.63964 19.214 3.54462 19.272 3.4847C19.2954 3.46114 19.307 3.38969 19.307 3.33063C19.307 3.00964 19.272 2.76012 19.2373 2.7246C19.2027 2.68865 19.156 2.67624 19.0287 2.67624H15.8874C15.7134 2.67624 15.6671 2.68863 15.6203 2.73616C15.5744 2.78366 15.5277 3.10466 15.5277 3.31865C15.5277 3.37814 15.5394 3.44918 15.5744 3.4847C15.6554 3.56816 16.0264 3.60411 16.2117 3.79456C16.316 3.9007 16.3857 4.09158 16.3857 4.37662V9.928C16.3857 10.3324 16.316 10.582 16.1887 10.7129C16.0147 10.8914 15.6554 10.9629 15.5744 11.0459C15.5394 11.0818 15.5277 11.1289 15.5277 11.2004C15.5277 11.509 15.5744 11.8188 15.6203 11.8659C15.6671 11.9138 15.7134 11.9254 15.8874 11.9254H19.1447C19.2954 11.9254 19.3646 11.9139 19.4114 11.8659C19.4577 11.8188 19.5032 11.509 19.5032 11.2004ZM30.2728 11.0339C30.6088 10.6894 30.6906 10.4869 30.6906 10.3205C30.6906 10.142 30.6438 9.99947 30.5049 9.85695C30.3538 9.70245 30.2269 9.67848 30.1105 9.67848C29.9481 9.67848 29.8785 9.72599 29.7745 9.83341C29.2646 10.3564 28.6152 10.6414 27.8269 10.6414C27.0273 10.6414 26.5285 10.0949 26.5285 9.74953C26.5285 9.65495 26.6099 9.57149 26.8182 9.512C29.0442 8.79855 29.9715 8.32348 30.3192 7.96654C30.5161 7.77652 30.5971 7.55055 30.5971 7.34854C30.5971 6.44506 29.3226 4.84056 27.3632 4.84056C26.5519 4.84056 25.7289 5.17267 25.1146 5.80309C24.5003 6.43351 24.1176 7.32457 24.1176 8.53748C24.1176 9.70245 24.4769 10.5109 25.1029 11.1529C25.7289 11.7949 26.6329 12.1159 27.6186 12.1159C28.6269 12.1159 29.5776 11.7474 30.2728 11.0339ZM33.9011 5.24414C33.9011 5.09007 33.8197 5.03015 33.6924 5.03015H31.4551C31.3274 5.03015 31.2815 5.03015 31.246 5.07808C31.2001 5.12559 31.1542 5.44658 31.1542 5.661C31.1542 5.72006 31.1772 5.76714 31.2001 5.80309C31.2815 5.91009 31.4551 5.94561 31.6062 6.07657C31.7101 6.18357 31.7569 6.40955 31.7569 6.75407V9.928C31.7569 10.3324 31.7101 10.5939 31.5941 10.7129C31.4201 10.8914 31.1304 10.9744 31.0495 11.0575C31.0265 11.0818 31.0148 11.1289 31.0148 11.2124C31.0148 11.5214 31.0612 11.8188 31.1075 11.8659C31.1425 11.9014 31.2001 11.9254 31.3274 11.9254H34.3072C34.4345 11.9254 34.4925 11.9014 34.5271 11.8659C34.5734 11.8188 34.6081 11.5214 34.6081 11.2124C34.6081 11.1289 34.5968 11.0818 34.5734 11.0575C34.4925 10.9744 34.2258 10.8914 34.0518 10.7129C33.9362 10.5939 33.9011 10.3324 33.9011 9.928V5.24414ZM32.6608 2.24869C32.0235 2.24869 31.5014 2.76013 31.5014 3.4021C31.5014 4.05563 32.0235 4.56707 32.6608 4.56707C33.3102 4.56707 33.8318 4.05563 33.8318 3.4021C33.8318 2.76013 33.3102 2.24869 32.6608 2.24869ZM41.6447 6.87305C41.6447 5.5416 40.9724 4.86409 39.9174 4.86409C39.4186 4.86409 38.8857 5.03015 38.3524 5.36355C38.1671 5.48253 38.1091 5.51805 38.0627 5.51805C37.877 5.51805 38.0047 5.03015 37.6684 5.03015H35.6284C35.5007 5.03015 35.4661 5.03015 35.4198 5.07808C35.3618 5.13757 35.3154 5.44658 35.3154 5.661C35.3154 5.72006 35.3271 5.76714 35.3618 5.80309C35.4544 5.89853 35.6284 5.93405 35.7674 6.07657C35.8722 6.18357 35.9176 6.40955 35.9176 6.75407V9.928C35.9176 10.3324 35.883 10.5939 35.7674 10.7129C35.6051 10.879 35.3271 10.9744 35.2458 11.0575C35.2228 11.0818 35.2107 11.1289 35.2107 11.2124C35.2107 11.5214 35.2457 11.8188 35.2925 11.8659C35.3271 11.9014 35.3964 11.9254 35.5241 11.9254H38.4454C38.5844 11.9254 38.6303 11.9014 38.6649 11.8659C38.7234 11.8064 38.7701 11.5214 38.7701 11.2124C38.7701 11.1289 38.758 11.0818 38.7346 11.0575C38.6424 10.9629 38.3757 10.879 38.2134 10.7129C38.0974 10.5939 38.0398 10.3324 38.0398 9.928V7.5865C38.0398 6.62354 38.5606 6.32652 38.9437 6.32652C39.3377 6.32652 39.558 6.62353 39.558 7.2531V10.5469C39.558 11.4264 40.1031 12.0084 41.0884 12.0084C42.1776 12.0084 42.6413 11.2004 42.6413 11.0339C42.6413 10.8914 42.4213 10.6059 42.2824 10.6059C42.1196 10.6059 41.888 10.8199 41.772 10.8199C41.691 10.8199 41.6447 10.7604 41.6447 10.5704V6.87305ZM63.1247 11.0339C63.4607 10.6894 63.5416 10.4869 63.5416 10.3205C63.5416 10.142 63.4957 9.99947 63.3568 9.85695C63.2057 9.70245 63.0776 9.67848 62.9624 9.67848C62.8 9.67848 62.7303 9.72599 62.626 9.83341C62.116 10.3564 61.4671 10.6414 60.6787 10.6414C59.8791 10.6414 59.3804 10.0949 59.3804 9.74953C59.3804 9.65495 59.4614 9.57149 59.67 9.512C61.8957 8.79855 62.823 8.32348 63.171 7.96654C63.368 7.77652 63.449 7.55055 63.449 7.34854C63.449 6.44506 62.174 4.84056 60.2151 4.84056C59.403 4.84056 58.5804 5.17267 57.9657 5.80309C57.3518 6.43351 56.9691 7.32457 56.9691 8.53748C56.9691 9.70245 57.3284 10.5109 57.9544 11.1529C58.5804 11.7949 59.4848 12.1159 60.4697 12.1159C61.4783 12.1159 62.4294 11.7474 63.1247 11.0339ZM61.3974 7.36052C61.3974 7.80049 61.2121 7.93145 60.5164 8.18053C59.9601 8.39495 59.5311 8.48998 59.403 8.48998C59.1718 8.48998 59.067 8.31151 59.067 7.94301C59.067 7.06351 59.3107 5.99354 60.2151 5.99354C61.0493 5.99354 61.3974 6.92098 61.3974 7.36052ZM48.8779 11.0339C49.2138 10.6894 49.2956 10.4869 49.2956 10.3205C49.2956 10.142 49.2489 9.99947 49.1099 9.85695C48.9592 9.70245 48.832 9.67848 48.7159 9.67848C48.5528 9.67848 48.4839 9.72599 48.3796 9.83341C47.8696 10.3564 47.2202 10.6414 46.4319 10.6414C45.6323 10.6414 45.1336 10.0949 45.1336 9.74953C45.1336 9.65495 45.215 9.57149 45.4236 9.512C47.6492 8.79855 48.5766 8.32348 48.9242 7.96654C49.1216 7.77652 49.2025 7.55055 49.2025 7.34854C49.2025 6.44506 47.9276 4.84056 45.9682 4.84056C45.1569 4.84056 44.334 5.17267 43.7197 5.80309C43.1053 6.43351 42.7227 7.32457 42.7227 8.53748C42.7227 9.70245 43.082 10.5109 43.7076 11.1529C44.334 11.7949 45.2383 12.1159 46.2236 12.1159C47.2319 12.1159 48.1826 11.7474 48.8779 11.0339ZM47.151 7.36052C47.151 7.80049 46.9652 7.93145 46.27 8.18053C45.7132 8.39495 45.2846 8.48998 45.1569 8.48998C44.9249 8.48998 44.821 8.31151 44.821 7.94301C44.821 7.06351 45.0643 5.99354 45.9682 5.99354C46.8029 5.99354 47.151 6.92098 47.151 7.36052ZM70.3575 6.87305C70.3575 5.5416 69.6856 4.86409 68.631 4.86409C68.1323 4.86409 67.5989 5.03015 67.066 5.36355C66.8803 5.48253 66.8219 5.51805 66.7764 5.51805C66.5907 5.51805 66.7179 5.03015 66.382 5.03015H64.3421C64.2144 5.03015 64.1793 5.03015 64.133 5.07808C64.075 5.13757 64.0286 5.44658 64.0286 5.661C64.0286 5.72006 64.0403 5.76714 64.075 5.80309C64.168 5.89853 64.3421 5.93405 64.481 6.07657C64.585 6.18357 64.6317 6.40955 64.6317 6.75407V9.928C64.6317 10.3324 64.5966 10.5939 64.481 10.7129C64.3183 10.879 64.0403 10.9744 63.9594 11.0575C63.936 11.0818 63.9243 11.1289 63.9243 11.2124C63.9243 11.5214 63.9594 11.8188 64.0049 11.8659C64.0403 11.9014 64.11 11.9254 64.2373 11.9254H67.1582C67.2976 11.9254 67.3439 11.9014 67.379 11.8659C67.437 11.8064 67.4829 11.5214 67.4829 11.2124C67.4829 11.1289 67.4717 11.0818 67.4483 11.0575C67.3556 10.9629 67.089 10.879 66.9266 10.7129C66.8106 10.5939 66.7522 10.3324 66.7522 9.928V7.5865C66.7522 6.62354 67.2742 6.32652 67.6569 6.32652C68.0513 6.32652 68.2712 6.62353 68.2712 7.2531V10.5469C68.2712 11.4264 68.8163 12.0084 69.8016 12.0084C70.8912 12.0084 71.3549 11.2004 71.3549 11.0339C71.3549 10.8914 71.1346 10.6059 70.9956 10.6059C70.8332 10.6059 70.6016 10.8199 70.4856 10.8199C70.4042 10.8199 70.3575 10.7604 70.3575 10.5704V6.87305ZM52.1581 2.46268H49.9329C49.7935 2.46268 49.7355 2.46268 49.7013 2.52259C49.6545 2.58165 49.6195 2.87911 49.6195 3.08111C49.6195 3.15216 49.6316 3.19967 49.6545 3.24718C49.7355 3.33063 50.0489 3.41366 50.1879 3.55661C50.3035 3.67559 50.3619 3.91312 50.3619 4.81616V9.57148C50.3619 10.3684 50.2809 10.6179 50.1879 10.7129C50.0255 10.879 49.7476 10.9744 49.6662 11.0575C49.6433 11.0818 49.6316 11.1289 49.6316 11.2124C49.6316 11.5214 49.6662 11.8188 49.7125 11.8659C49.7476 11.9014 49.7935 11.9254 49.9446 11.9254H52.8542C53.0049 11.9254 53.0508 11.9014 53.0858 11.8659C53.1321 11.8188 53.1901 11.5214 53.1901 11.2124C53.1901 11.1289 53.1789 11.0818 53.1438 11.0575C53.0629 10.9744 52.7845 10.879 52.6334 10.7129C52.5066 10.5939 52.4598 10.3324 52.4598 9.928V9.65495C52.4598 9.50044 52.5065 9.45251 52.7615 9.19101C52.8771 9.08444 52.9811 9.00142 53.0629 9.00142C53.1789 9.00142 53.2711 9.08444 54.5465 11.7234C54.6274 11.8899 54.6621 11.9254 54.8707 11.9254H56.76C56.8994 11.9254 56.9461 11.9014 56.9808 11.8659C57.0271 11.8188 57.0734 11.5214 57.0734 11.2124C57.0734 11.1289 57.0622 11.0818 57.0383 11.0575C56.9574 10.9744 56.4708 10.9149 56.3665 10.7129C54.6859 7.80049 54.6391 7.70505 54.6391 7.52701C54.6391 7.37251 55.3811 6.61198 55.9954 6.11253C56.3898 5.79154 56.6444 6.0051 56.6444 5.62505C56.6444 5.18508 56.5868 5.03015 56.5054 5.03015H53.7005C53.4568 5.03015 53.4339 5.17268 53.4339 5.70808C53.4339 5.88612 53.9205 5.91008 53.9205 6.1596C53.9205 6.37359 52.7382 7.53899 52.5412 7.53899C52.4715 7.53899 52.4598 7.49149 52.4598 7.28905V2.79565C52.4598 2.6052 52.3321 2.46268 52.1581 2.46268Z"/><path fill="#073763" d="M6.96535 0.598236L8.50418 5.39773L13.4307 5.41547L9.45523 8.39948L10.9611 13.2099L6.96535 10.2547L2.96954 13.2099L4.47546 8.39948L0.5 5.41547L5.42651 5.39773L6.96535 0.598236Z"/><path fill="#073763" d="M70.3634 2.21222C70.5583 2.21222 70.7452 2.26243 70.9243 2.36285C71.1033 2.46226 71.2438 2.6053 71.3457 2.79194C71.4485 2.97859 71.5 3.17386 71.5 3.37775C71.5 3.58064 71.4495 3.77438 71.3486 3.959C71.2487 4.14261 71.1088 4.28614 70.9287 4.38962C70.7497 4.49207 70.5613 4.5433 70.3634 4.5433C70.1656 4.5433 69.9767 4.49207 69.7967 4.38962C69.6176 4.28614 69.4777 4.14261 69.3768 3.959C69.2769 3.77438 69.2269 3.58064 69.2269 3.37775C69.2269 3.17386 69.2778 2.97859 69.3797 2.79194C69.4826 2.6053 69.6235 2.46226 69.8026 2.36285C69.9816 2.26243 70.1686 2.21222 70.3634 2.21222ZM70.3651 2.44045C70.2088 2.44045 70.059 2.48052 69.9155 2.56066C69.7721 2.6408 69.6589 2.75593 69.5758 2.90606C69.4937 3.0562 69.4526 3.21342 69.4526 3.37775C69.4526 3.54107 69.4927 3.69679 69.5728 3.84489C69.6539 3.99299 69.7667 4.10863 69.9111 4.19181C70.0555 4.27499 70.2068 4.31658 70.3651 4.31658C70.5244 4.31658 70.6757 4.27499 70.8191 4.19181C70.9635 4.10863 71.0763 3.99299 71.1574 3.84489C71.2385 3.69679 71.2791 3.54107 71.2791 3.37775C71.2791 3.21342 71.2375 3.0562 71.1544 2.90606C71.0723 2.75593 70.9591 2.6408 70.8147 2.56066C70.6712 2.48052 70.5214 2.44045 70.3651 2.44045ZM69.8502 4.00161V2.76455H70.0951C70.3245 2.76455 70.4531 2.76558 70.4808 2.76764C70.5619 2.77476 70.6248 2.7915 70.6693 2.81784C70.7148 2.84321 70.7524 2.88277 70.782 2.93653C70.8127 2.98928 70.828 3.04811 70.828 3.11303C70.828 3.2023 70.7993 3.27889 70.742 3.34279C70.6856 3.40569 70.606 3.44474 70.5031 3.45995C70.5397 3.47416 70.5679 3.48988 70.5877 3.50713C70.6075 3.52336 70.6347 3.55481 70.6693 3.60147C70.6782 3.61363 70.7078 3.66385 70.7583 3.7521L70.9007 4.00165H70.598L70.4972 3.8008C70.4289 3.66588 70.3725 3.58118 70.328 3.54669C70.2835 3.51119 70.2271 3.49343 70.1589 3.49343H70.0951V4.00165H69.8502V4.00161ZM70.0951 3.29867H70.1945C70.3359 3.29867 70.4235 3.29309 70.4571 3.28193C70.4917 3.27077 70.5189 3.25148 70.5387 3.2241C70.5585 3.19569 70.5684 3.16375 70.5684 3.12825C70.5684 3.09376 70.5585 3.06333 70.5387 3.03696C70.5199 3.00956 70.4927 2.99029 70.4571 2.97913C70.4215 2.96698 70.334 2.96085 70.1945 2.96085H70.0951V3.29864"/></svg>